<svg width="76" height="74" viewBox="0 0 76 74" fill="none" xmlns="http://www.w3.org/2000/svg">
<g filter="url(#filter0_i_53_13)">
<rect x="1.64034" y="44.402" width="7.22458" height="17.2587" rx="3.61229" fill="#5E42EC"/>
</g>
<rect x="3.44648" y="46.2081" width="3.61229" height="13.6464" rx="1.80614" stroke="white" stroke-width="3.61229"/>
<rect x="68.8694" y="46.2081" width="3.61229" height="13.6464" rx="1.80614" fill="#5E42EC" stroke="white" stroke-width="3.61229"/>
<line x1="39.3984" y1="20.1476" x2="39.3984" y2="34.1954" stroke="white" stroke-width="4.07669"/>
<g filter="url(#filter1_i_53_13)">
<rect x="29.3315" y="27.3721" width="17.6601" height="10.4355" rx="5.21775" fill="#5E42EC"/>
</g>
<rect x="31.3698" y="29.4105" width="13.5834" height="6.35881" rx="3.1794" stroke="white" stroke-width="4.07669"/>
<g filter="url(#filter2_i_53_13)">
<circle cx="38.1615" cy="14.9289" r="6.42185" fill="#5E42EC"/>
</g>
<circle cx="38.1615" cy="14.9289" r="4.3835" stroke="white" stroke-width="4.07669"/>
<g filter="url(#filter3_i_53_13)">
<path d="M5.25261 59.0264C5.25261 42.969 18.2697 29.9518 34.3271 29.9518H41.6007C57.6581 29.9518 70.6752 42.969 70.6752 59.0264C70.6752 66.9091 64.285 73.2993 56.4022 73.2993H19.5255C11.6428 73.2993 5.25261 66.9091 5.25261 59.0264Z" fill="#4353FF"/>
</g>
<path d="M34.3268 31.9899H41.6003C56.5318 31.9899 68.6362 44.0945 68.6364 59.0261C68.6364 65.783 63.159 71.2614 56.402 71.2614H19.5251C12.7683 71.2612 7.2907 65.7829 7.2907 59.0261C7.29086 44.0946 19.3954 31.9901 34.3268 31.9899Z" stroke="white" stroke-width="4.07669"/>
<circle cx="24.1184" cy="45.2038" r="6.79169" fill="white" stroke="white" stroke-width="4.07669"/>
<circle cx="24.1179" cy="45.2048" r="4.41502" fill="#0C0C0C"/>
<circle cx="22.5145" cy="44.4001" r="1.60546" fill="white"/>
<circle cx="51.4104" cy="45.2038" r="6.79169" fill="white" stroke="white" stroke-width="4.07669"/>
<circle cx="51.4098" cy="45.2048" r="4.41502" fill="#0C0C0C"/>
<circle cx="49.8063" cy="44.4001" r="1.60546" fill="white"/>
<path d="M30.1375 59.2524C33.3484 65.4735 42.3791 65.4735 45.7907 59.2524" stroke="white" stroke-width="4.07669" stroke-linecap="round"/>
<path d="M64.628 44.7769C66.262 44.5696 67.8436 44.1161 69.4274 43.7773C70.3872 43.5717 71.4082 43.2717 72.1674 42.7559C72.5033 42.5542 72.7471 42.2749 72.8633 41.9586C72.9153 41.6689 72.8473 41.3739 72.6691 41.1159C71.7463 39.5348 69.868 38.4089 68.882 36.8548C68.8363 36.7905 68.8128 36.7181 68.8138 36.6447C68.8147 36.5714 68.8401 36.4994 68.8874 36.4358C68.9347 36.3721 69.0024 36.319 69.084 36.2814C69.1655 36.2438 69.2582 36.223 69.3532 36.2211C71.0544 36.1579 72.7197 35.8203 74.242 35.2299C73.4981 34.4715 72.8087 33.6843 72.1281 32.8904C70.7472 31.2807 69.351 29.6424 67.3898 28.4136C65.6162 27.3028 63.3911 26.5595 61.0786 26.7989C60.5812 26.8494 60.4002 26.3151 60.6925 26.0791C62.3544 24.7475 64.5888 23.9311 66.9753 23.7834C66.4414 23.527 65.8836 23.3017 65.3064 23.1092C63.2558 22.4181 60.987 22.0861 58.7619 21.9748C56.5993 21.8467 54.4242 21.966 52.3067 22.3288C52.1675 22.3547 52.0207 22.3386 51.8962 22.2838C51.7718 22.229 51.6791 22.1396 51.637 22.0338C51.5235 21.8248 51.3948 21.6225 51.2552 21.422C50.9694 21.2062 50.7818 20.8405 50.5702 20.6163C50.19 20.217 49.762 19.8462 49.2918 19.5089C47.4972 18.2116 45.1217 17.5024 42.6644 17.53C41.4021 17.5533 40.1575 17.7651 38.9994 18.1537C37.8426 18.5426 36.7955 19.1026 35.9169 19.8022C35.8692 19.8408 35.8121 19.8717 35.7489 19.8932C35.6636 19.9268 35.5674 19.9405 35.4722 19.9327C35.3769 19.9249 35.2866 19.896 35.2122 19.8493C35.1268 19.8575 35.0401 19.8517 34.9578 19.8322C34.8755 19.8127 34.7994 19.7801 34.7345 19.7364C33.5126 18.9507 32.0441 18.4279 30.4772 18.2207C28.9103 18.0136 27.3003 18.1294 25.8099 18.5565C25.5917 18.6206 25.3735 18.6931 25.1554 18.7706C23.6163 19.3371 22.3145 20.2266 21.3988 21.3377C21.3299 21.419 21.2289 21.4811 21.1108 21.5147C21.012 21.5449 20.9041 21.5527 20.7998 21.5371C20.6955 21.5216 20.5991 21.4834 20.5218 21.427C20.056 21.0638 19.5091 20.7686 18.9075 20.5556C18.4027 20.3982 17.8689 20.3032 17.3259 20.2741C16.3366 20.2248 15.3476 20.374 14.455 20.7073C13.5541 21.0387 12.8026 21.5713 12.2975 22.2361C11.796 22.9174 11.546 23.6919 11.5749 24.4753C11.6037 25.2587 11.9103 26.021 12.4611 26.6792C12.5012 26.7311 12.5261 26.7891 12.534 26.8493C12.542 26.9094 12.5327 26.9702 12.5069 27.0272C12.4811 27.0843 12.4394 27.1363 12.3847 27.1795C12.3301 27.2228 12.2638 27.2563 12.1906 27.2775C12.1226 27.3036 12.0483 27.3186 11.9724 27.3214C10.9778 27.3479 10.0022 27.5399 9.11243 27.8843C8.81072 27.9991 8.51921 28.1291 8.23982 28.2737C7.25144 28.7763 6.44461 29.4647 5.8951 30.2743C5.3456 31.084 5.07145 31.9882 5.09842 32.9022C5.13918 33.8118 5.46325 34.7004 6.04316 35.4927C6.62306 36.2849 7.44169 36.9574 8.42961 37.4532C8.50082 37.4863 8.56143 37.5314 8.6069 37.5852C8.65238 37.639 8.68156 37.6999 8.69226 37.7636C8.70295 37.8273 8.69489 37.8921 8.66868 37.953C8.64247 38.0139 8.59878 38.0695 8.54087 38.1156C8.3037 38.2787 8.05062 38.4275 7.78388 38.5606L7.70316 38.6027C7.61372 38.6465 7.5221 38.687 7.43047 38.7275C7.33885 38.7679 7.28649 38.7898 7.21232 38.8185C7.13815 38.8471 7.07488 38.8724 6.99417 38.896C6.88727 38.9348 6.77601 38.9719 6.6713 39.0056L6.53605 39.0477C6.38334 39.0915 6.23063 39.1303 6.07792 39.1657H6.05175C4.41701 39.5332 2.66198 39.401 1.14985 38.7966C1.215 39.0906 1.3394 39.375 1.51853 39.6393C1.8396 40.107 2.28479 40.517 2.82498 40.8426C3.36517 41.1682 3.98822 41.402 4.65339 41.5288C6.23281 41.844 7.90168 41.63 9.39385 41.1715C9.83015 41.0383 10.2861 41.5086 10.009 41.7901C9.52397 42.2637 9.207 42.8268 9.08939 43.4239C8.97178 44.021 9.05759 44.6315 9.33835 45.1952C9.61911 45.7588 10.0851 46.2562 10.6905 46.6384C11.2958 47.0205 12.0196 47.2741 12.7905 47.3743C13.0763 46.5501 13.3817 45.7326 13.6413 44.9033C13.6413 44.8932 13.6413 44.8831 13.6413 44.8713C13.4811 44.8898 13.3179 44.8864 13.1592 44.8612C11.7979 44.6505 11.0649 43.3981 11.2721 42.3328C11.4794 41.2676 12.3629 40.3725 13.205 39.523C12.0887 40.0839 10.7654 40.3467 9.43748 40.2714C9.36229 40.2742 9.28724 40.264 9.2178 40.2416C9.14837 40.2191 9.08628 40.185 9.03608 40.1416C8.85283 39.9191 9.30441 39.7169 9.63818 39.6629C10.9145 39.4568 12.0874 38.9718 13.0174 38.2656C12.2681 37.9162 11.6903 37.3845 11.3744 36.754C11.0585 36.1234 11.0226 35.4297 11.2721 34.7816C11.4685 34.3113 11.9113 33.836 12.5483 33.7956C12.5496 33.8113 12.5496 33.827 12.5483 33.8427C12.6255 33.8273 12.7062 33.8262 12.7841 33.8393C12.8619 33.8525 12.9347 33.8796 12.9965 33.9185C13.0582 33.9574 13.1073 34.0069 13.1398 34.0632C13.1722 34.1194 13.1871 34.1807 13.1832 34.2422C13.1763 34.6317 13.274 35.018 13.47 35.3769C13.666 35.7357 13.956 36.0593 14.3219 36.3272C15.8141 37.4768 18.0109 37.5324 19.8957 36.9829C20.1139 36.9172 20.332 36.843 20.5611 36.7587C22.1492 36.1553 23.6152 35.09 23.8748 33.7113C23.889 33.6544 23.9211 33.6011 23.9683 33.5562C24.0155 33.5112 24.0763 33.4759 24.1453 33.4534C24.2744 33.4005 24.4238 33.3849 24.5664 33.4096C24.7038 33.4421 24.8198 33.514 24.8908 33.6105C24.9618 33.707 24.9823 33.8209 24.9482 33.9287C24.8393 34.4618 24.5834 34.9705 24.1977 35.4204C25.1001 35.9664 26.1691 36.324 27.302 36.4587C28.3823 36.5952 29.4887 36.5388 30.5365 36.294C31.5843 36.0492 32.5456 35.6223 33.347 35.0462C34.9406 33.8817 35.8994 32.2915 36.0281 30.5998C36.0085 30.4312 35.9845 30.2761 35.9649 30.1463C35.9442 30.0633 35.9502 29.9777 35.9823 29.8969C36.0347 29.8315 36.1096 29.7788 36.1986 29.7446C36.2876 29.7103 36.3872 29.6959 36.4863 29.703C37.2956 29.6929 37.9697 30.1581 38.5194 30.6166C39.0057 31.0057 39.4487 31.4258 39.8436 31.8723C40.0558 32.1197 40.2356 32.3829 40.3803 32.6578C40.5796 33.0396 40.711 33.4404 40.7708 33.8495C40.775 33.9479 40.7706 34.0465 40.7577 34.1445C41.4649 33.2791 42.4185 32.5498 43.5457 32.0122C43.5763 31.9979 43.6084 31.9855 43.6417 31.9752C44.1107 31.815 44.5143 32.2415 44.3136 32.582C43.8812 33.2927 43.5266 34.0302 43.2534 34.7867L43.3254 34.7159C43.5915 34.431 43.8707 34.1546 44.1674 33.8883C44.7536 33.3531 45.425 32.8774 46.1657 32.4724C47.2412 31.8976 48.8512 31.2116 50.1775 31.5959C50.2078 31.6027 50.236 31.6142 50.2604 31.6296C50.2837 31.6505 50.2982 31.6764 50.3019 31.7038C50.3056 31.7669 50.2847 31.8294 50.2419 31.8831C50.1991 31.9369 50.1364 31.9796 50.0619 32.0055C49.9116 32.0537 49.7527 32.0844 49.5907 32.0965C49.0983 32.1614 48.6331 32.3163 48.2338 32.5482C47.8825 32.7806 47.5871 33.059 47.3612 33.3708C47.2521 33.509 47.1888 33.7079 47.3612 33.8124C47.4281 33.8433 47.5056 33.8578 47.5834 33.8542C47.6612 33.8506 47.7358 33.829 47.7975 33.7922C48.0172 33.6629 48.2145 33.5122 48.3843 33.3438C49.1544 32.7353 51.1112 32.5651 51.5584 33.5511C51.7242 33.9169 51.5584 34.3181 51.4276 34.6923C51.2935 35.0717 51.1908 35.4573 51.12 35.8469C51.0937 36.0202 51.085 36.1949 51.0938 36.3694C51.168 37.5071 52.2914 38.569 53.6636 38.9483C54.8368 39.2556 56.1181 39.2018 57.2413 38.7982C57.608 38.6689 57.9537 38.5066 58.271 38.3145C58.3286 38.2794 58.3925 38.251 58.4608 38.2302C58.5589 38.1918 58.6703 38.1784 58.7789 38.192C58.8876 38.2056 58.9878 38.2456 59.0651 38.3061C59.1661 38.3858 59.2226 38.4929 59.2226 38.6044C59.2226 38.716 59.1661 38.8231 59.0651 38.9028C58.7888 39.0685 58.4972 39.2184 58.1925 39.3511H58.1816C58.0878 39.3916 57.9918 39.432 57.8958 39.4691L57.8631 39.4826C57.6194 39.5755 57.3688 39.6571 57.1126 39.727L56.8945 39.7826L56.7745 39.8079L56.637 39.8382C56.8057 40.3124 57.1157 40.7494 57.5424 41.1142C58.6331 42.0446 60.1799 42.4626 61.7767 42.4525C62.6914 42.4379 63.5978 42.3151 64.4644 42.0884C64.7174 42.0227 64.9858 41.9519 65.2454 41.8626C65.6764 41.7288 66.0489 41.5024 66.3187 41.2103C66.3805 41.1333 66.4732 41.0741 66.5826 41.0417C67.0189 40.9001 67.5949 41.2524 67.2807 41.63C67.1851 41.7435 67.0755 41.8496 66.9535 41.9468C66.601 42.2604 66.1504 42.499 65.6446 42.6396C65.5028 42.6902 65.3566 42.7357 65.2083 42.7778C64.3531 43.3239 62.9504 43.7891 62.3483 43.9847C62.4072 44.1633 62.4814 44.3403 62.5664 44.5139C63.1205 44.7111 63.6899 44.8848 64.2659 45.0381C64.2904 44.9735 64.3369 44.9152 64.4007 44.8692C64.4644 44.8233 64.5429 44.7914 64.628 44.7769Z" fill="white"/>
<path d="M65.2105 42.7778C65.3588 42.7357 65.505 42.6902 65.6468 42.6396C66.1387 42.4787 66.5838 42.2431 66.9557 41.9468C67.0777 41.8496 67.1873 41.7435 67.2829 41.63C67.597 41.2524 67.0124 40.9001 66.5848 41.0417C66.4834 41.0771 66.3988 41.136 66.3427 41.2103C66.0698 41.5076 65.6908 41.7372 65.2519 41.871C64.9923 41.9603 64.724 42.0396 64.4709 42.0969C63.6024 42.3246 62.6937 42.448 61.7767 42.4626C60.1799 42.4626 58.6331 42.0463 57.5424 41.1142C57.1142 40.7476 56.804 40.3081 56.637 39.8315L56.7745 39.8045L56.8945 39.7792L57.1126 39.7236C57.3688 39.6537 57.6194 39.5721 57.8631 39.4792L57.8958 39.4657C57.9918 39.4286 58.0878 39.3882 58.1816 39.3477H58.1925C58.4972 39.215 58.7888 39.0651 59.0651 38.8994C59.1661 38.8197 59.2226 38.7126 59.2226 38.601C59.2226 38.4895 59.1661 38.3824 59.0651 38.3027C58.9878 38.2422 58.8876 38.2023 58.7789 38.1886C58.6703 38.175 58.5589 38.1884 58.4608 38.2268C58.4005 38.2459 58.3439 38.2714 58.2928 38.3027C57.9695 38.4992 57.6164 38.6644 57.2413 38.7949C56.1181 39.1985 54.8368 39.2522 53.6636 38.9449C52.2914 38.5656 51.168 37.5037 51.0938 36.366C51.085 36.1916 51.0937 36.0169 51.12 35.8435C51.1908 35.454 51.2935 35.0683 51.4276 34.6889C51.5606 34.3147 51.7242 33.9135 51.5584 33.5478C51.1221 32.5617 49.1588 32.732 48.3843 33.3405C48.2145 33.5088 48.0172 33.6595 47.7975 33.7888C47.7358 33.8256 47.6612 33.8472 47.5834 33.8509C47.5056 33.8545 47.4281 33.8399 47.3612 33.809C47.1954 33.7113 47.2586 33.5056 47.3612 33.3674C47.5871 33.0557 47.8825 32.7772 48.2338 32.5449C48.6331 32.3129 49.0983 32.158 49.5907 32.0932C49.7527 32.081 49.9116 32.0503 50.0619 32.0021C50.1364 31.9762 50.1991 31.9336 50.2419 31.8798C50.2847 31.826 50.3056 31.7635 50.3019 31.7004C50.2982 31.673 50.2837 31.6471 50.2604 31.6263C50.236 31.6108 50.2078 31.5993 50.1775 31.5925C48.8512 31.2082 47.2412 31.8943 46.1657 32.469C45.425 32.874 44.7536 33.3497 44.1674 33.8849C43.8707 34.1512 43.5915 34.4276 43.3254 34.7125L43.2534 34.7833C43.5266 34.0268 43.8812 33.2894 44.3136 32.5786C44.5208 32.2415 44.1107 31.8117 43.6417 31.9718C43.6157 31.9799 43.5908 31.9901 43.5675 32.0021C42.4286 32.5439 41.4664 33.281 40.7555 34.1563V34.1411C40.7685 34.0431 40.7728 33.9446 40.7686 33.8461C40.7088 33.4371 40.5774 33.0362 40.3781 32.6544C40.2334 32.3795 40.0536 32.1164 39.8414 31.869C39.4465 31.4224 39.0035 31.0023 38.5173 30.6132C37.9675 30.1548 37.2934 29.6896 36.4841 29.6997C36.3851 29.6926 36.2854 29.7069 36.1964 29.7412C36.1074 29.7754 36.0325 29.8282 35.9801 29.8935C35.948 29.9743 35.9421 30.06 35.9627 30.143C35.9823 30.2728 36.0063 30.4278 36.026 30.5964L36.039 30.6925C35.8786 32.3468 34.9258 33.8955 33.3667 35.0361C32.5615 35.6123 31.5973 36.0395 30.547 36.2853C29.4968 36.5312 28.3879 36.5893 27.3042 36.4553C26.1713 36.3206 25.1023 35.9631 24.1999 35.417C24.5856 34.9671 24.8415 34.4584 24.9503 33.9253C24.9845 33.8175 24.964 33.7037 24.893 33.6071C24.822 33.5106 24.7059 33.4387 24.5686 33.4062C24.4259 33.3816 24.2766 33.3971 24.1475 33.45C24.0836 33.474 24.0278 33.5092 23.9847 33.5528C23.9415 33.5964 23.9121 33.6472 23.8988 33.7012C23.6371 35.085 22.1536 36.1536 20.5633 36.7554C20.3451 36.8396 20.127 36.9138 19.8979 36.9795C18.0131 37.529 15.8163 37.4734 14.3241 36.3239C13.9582 36.0559 13.6681 35.7323 13.4721 35.3735C13.2762 35.0146 13.1785 34.6283 13.1853 34.2388C13.1892 34.1774 13.1744 34.116 13.142 34.0598C13.1095 34.0035 13.0604 33.954 12.9986 33.9151C12.9369 33.8762 12.8641 33.8491 12.7863 33.836C12.7084 33.8228 12.6277 33.824 12.5505 33.8394C12.5517 33.8237 12.5517 33.8079 12.5505 33.7922C11.9135 33.8326 11.4598 34.308 11.2743 34.7782C11.0247 35.4263 11.0607 36.12 11.3766 36.7506C11.6924 37.3812 12.2703 37.9129 13.0196 38.2622C12.0896 38.9684 10.9167 39.4534 9.64036 39.6596C9.30659 39.7135 8.85501 39.9158 9.03826 40.1383C9.08846 40.1816 9.15055 40.2157 9.21999 40.2382C9.28943 40.2606 9.36447 40.2708 9.43966 40.268C10.7744 40.3481 12.1061 40.0863 13.229 39.523C12.3804 40.3658 11.5034 41.2726 11.2961 42.3328C11.1216 43.2312 11.6168 44.369 12.7643 44.7516C13.6369 45.0398 13.7329 44.7044 13.962 44.1279C14.7735 42.0918 14.7495 39.9545 15.7639 37.9588L15.9821 38.0128C18.4341 38.5184 21.1087 37.7667 22.963 36.511C23.1623 36.3755 23.3524 36.232 23.5323 36.0812C24.4905 36.6436 25.5976 37.0357 26.7745 37.2294C27.9514 37.4232 29.1692 37.4138 30.3409 37.202C32.8213 36.7705 34.8828 35.4086 36.0412 33.6826C36.1503 33.5141 36.2463 33.3539 36.3401 33.1871C38.0744 33.1652 39.2852 34.3248 40.2385 35.3075C40.4566 35.5317 40.9911 35.6261 41.1809 35.3075C41.521 34.7349 41.9752 34.2071 42.5269 33.7433C42.288 34.282 42.0885 34.8307 41.9292 35.3867C41.9038 35.467 41.9093 35.5513 41.9448 35.6292C41.9802 35.7072 42.0443 35.7755 42.1291 35.8258C42.2139 35.8762 42.3159 35.9064 42.4225 35.9129C42.5291 35.9193 42.6359 35.9016 42.7298 35.862C43.8145 35.4488 45.0064 35.2314 46.2157 35.2261C47.425 35.2209 48.6201 35.4279 49.7107 35.8317C49.8042 35.8673 49.9076 35.8847 50.0117 35.8823C49.9881 36.0428 49.9808 36.2046 49.9899 36.366C50.04 37.0791 50.361 37.7651 50.9127 38.3381C51.4442 38.89 52.1478 39.329 52.9579 39.6143C53.7681 39.8996 54.6585 40.0218 55.5463 39.9697C55.9193 41.1867 57.1192 42.2115 58.5546 42.7593C58.7728 42.8385 58.9778 42.9059 59.1938 42.9683C59.4098 43.0306 59.6148 43.0762 59.8286 43.1183C59.8171 43.1515 59.8091 43.1853 59.8046 43.2194V43.3037L59.9399 43.3745C60.1035 43.4605 60.2715 43.5431 60.4416 43.6273C60.5747 43.6931 60.71 43.7571 60.8452 43.8212C61.4032 44.0758 61.9777 44.3081 62.5664 44.5173C62.4857 44.3487 62.4116 44.1667 62.3483 43.988C62.9526 43.7841 64.3553 43.3239 65.2105 42.7778Z" fill="#4353FF"/>
<path d="M75.4615 35.0698C73.7795 33.4466 72.4728 31.6161 70.8257 29.9727C69.2986 28.4473 67.4269 27.1073 65.0861 26.3825C64.2855 26.1305 63.4392 25.9759 62.5773 25.9241C64.3215 24.9313 66.4795 24.4725 68.6355 24.6363C69.1045 24.6717 69.3575 24.1492 69.0216 23.9166C67.3374 22.7485 65.1908 22.0456 63.0137 21.6242C60.6463 21.1776 58.2058 21.0072 55.7732 21.1186C54.6621 21.1668 53.5573 21.2795 52.4681 21.4557C51.3798 19.6777 49.5173 18.2518 47.2063 17.4272C44.6648 16.5383 41.772 16.4601 39.1565 17.2098C37.7425 17.6079 36.4513 18.229 35.365 19.0335C33.6113 17.9354 31.4388 17.3135 29.1825 17.2637C26.9611 17.2229 24.7858 17.7568 23.0022 18.7807C22.1692 19.2609 21.4338 19.8347 20.8207 20.4831C20.4468 20.233 20.0307 20.0232 19.5838 19.8595C19.0497 19.6678 18.4824 19.5372 17.8996 19.4718C16.7109 19.3402 15.4983 19.4566 14.3874 19.8089C13.2663 20.1568 12.2989 20.7474 11.6016 21.5096C10.9649 22.2435 10.5842 23.0919 10.4963 23.9727C10.4084 24.8535 10.6163 25.737 11.0998 26.5376C9.88747 26.6805 8.72934 27.0238 7.70451 27.5442C6.67969 28.0647 5.81233 28.7499 5.16168 29.553C3.68915 31.3768 3.67388 33.659 4.86718 35.5755C5.41834 36.4607 6.22963 37.2341 7.23632 37.8341C5.39511 38.7982 2.7031 38.7831 0.951331 37.6959C0.873569 37.6399 0.776608 37.6024 0.672011 37.5878C0.567414 37.5732 0.459595 37.5822 0.361409 37.6136C0.263223 37.6451 0.178815 37.6977 0.118249 37.7652C0.0576825 37.8327 0.0235138 37.9122 0.0198177 37.9942C-0.132889 39.2163 0.611012 40.4282 1.76504 41.249C3.07396 42.1845 4.86063 42.5789 6.62549 42.5098C7.2217 42.4854 7.81346 42.4165 8.39253 42.3042C8.00376 43.0641 7.88696 43.8908 8.05439 44.6977C8.18383 45.2627 8.45865 45.8018 8.86259 46.2833C9.26653 46.7648 9.79139 47.1788 10.4061 47.5007C11.0735 47.8578 11.8362 48.0945 12.6378 48.1935C12.7768 48.2203 12.9238 48.2048 13.0485 48.1502C13.1732 48.0956 13.2659 48.0061 13.3075 47.9002C13.3452 47.7925 13.3265 47.6776 13.2554 47.5805C13.1844 47.4834 13.0668 47.4117 12.9279 47.381L12.8014 47.3625C12.0328 47.2614 11.3114 47.0076 10.708 46.6262C10.1046 46.2447 9.63982 45.7486 9.35935 45.1865C9.07887 44.6244 8.9923 44.0157 9.10811 43.42C9.22392 42.8242 9.53813 42.262 10.0199 41.7884C10.297 41.5035 9.83234 41.0367 9.40476 41.1698C7.91259 41.6283 6.24372 41.844 4.66429 41.5271C3.99835 41.3996 3.37481 41.1647 2.83457 40.8379C2.29432 40.5111 1.84956 40.0998 1.52944 39.6309C1.35031 39.3666 1.22591 39.0822 1.16076 38.7881C1.16076 38.7881 1.16076 38.7763 1.16076 38.7713C2.66814 39.3814 4.42086 39.522 6.05829 39.164H6.08447C6.23718 39.1286 6.38988 39.0898 6.54259 39.046L6.67784 39.0039C6.78692 38.9702 6.896 38.9331 7.00071 38.8943C7.07052 38.8707 7.14033 38.8438 7.21886 38.8168C7.2974 38.7898 7.36503 38.7561 7.43702 38.7258C7.50901 38.6954 7.62027 38.6449 7.70971 38.601L7.79043 38.5589C8.05717 38.4258 8.31024 38.277 8.54742 38.1139C8.60532 38.0678 8.64901 38.0123 8.67523 37.9513C8.70144 37.8904 8.7095 37.8256 8.6988 37.762C8.6881 37.6983 8.65893 37.6373 8.61345 37.5835C8.56797 37.5298 8.50737 37.4846 8.43616 37.4515C7.44823 36.9558 6.6296 36.2833 6.0497 35.491C5.4698 34.6988 5.14572 33.8102 5.10496 32.9005C5.07766 31.9873 5.35099 31.0837 5.89931 30.2744C6.44762 29.4651 7.25297 28.7767 8.23982 28.2737C8.51921 28.1291 8.81072 27.9991 9.11243 27.8843C10.01 27.534 10.9957 27.339 12.0008 27.3129C12.07 27.311 12.138 27.299 12.2015 27.2775C12.2747 27.2563 12.341 27.2228 12.3956 27.1795C12.4503 27.1363 12.492 27.0843 12.5178 27.0272C12.5436 26.9702 12.5529 26.9094 12.545 26.8493C12.537 26.7891 12.5121 26.7311 12.472 26.6792C11.9195 26.0218 11.6111 25.2599 11.5803 24.4765C11.5495 23.6931 11.7976 22.9181 12.2975 22.2361C12.8003 21.5723 13.5486 21.0398 14.4463 20.7073C15.3444 20.3684 16.3416 20.2167 17.339 20.2674C17.8853 20.2955 18.4222 20.3911 18.9293 20.5505C19.5302 20.7646 20.0769 21.0596 20.5436 21.422C20.6176 21.4768 20.7096 21.5148 20.8097 21.5317C20.9098 21.5487 21.014 21.5439 21.1108 21.518C21.2303 21.4839 21.3322 21.4205 21.401 21.3377C22.3167 20.2266 23.6185 19.3371 25.1576 18.7706C25.3757 18.6897 25.6048 18.6155 25.8339 18.5481C27.7391 17.9998 29.8287 17.9671 31.7611 18.4554C32.8577 18.7267 33.8757 19.1601 34.7585 19.7314C34.8233 19.7753 34.8993 19.8081 34.9816 19.8279C35.0639 19.8476 35.1507 19.8538 35.2362 19.846C35.3077 19.8902 35.3936 19.9183 35.4845 19.9273C35.5753 19.9362 35.6676 19.9256 35.7511 19.8965C35.8143 19.8751 35.8714 19.8441 35.9191 19.8055C37.6999 18.3874 40.1296 17.5656 42.6862 17.5166C45.1448 17.491 47.5202 18.2041 49.3115 19.5055C50.0864 20.0597 50.7405 20.7068 51.2487 21.422C51.3883 21.6225 51.517 21.8248 51.6304 22.0338C51.6725 22.1407 51.7663 22.2309 51.8922 22.2859C52.0181 22.3408 52.1665 22.3561 52.3067 22.3288C54.4294 21.9624 56.6106 21.8408 58.7793 21.9681C61.0045 22.0793 63.2733 22.4114 65.3239 23.1025C65.9011 23.2949 66.4589 23.5203 66.9928 23.7767C64.6062 23.9244 62.3718 24.7408 60.71 26.0724C60.4176 26.3084 60.5987 26.8427 61.0961 26.7921C63.4085 26.5578 65.6337 27.2978 67.4073 28.4069C69.3706 29.6356 70.7646 31.2723 72.1455 32.8837C72.8262 33.6776 73.5155 34.4647 74.2594 35.2232C72.7364 35.8183 71.0687 36.16 69.3641 36.2261C69.2691 36.2281 69.1764 36.2488 69.0949 36.2864C69.0133 36.324 68.9456 36.3772 68.8983 36.4408C68.851 36.5045 68.8256 36.5764 68.8247 36.6498C68.8237 36.7232 68.8472 36.7955 68.8929 36.8599C69.8789 38.4139 71.7572 39.5399 72.68 41.1209C72.8582 41.379 72.9262 41.674 72.8742 41.9637C72.758 42.2799 72.5142 42.5592 72.1783 42.761C71.4191 43.2767 70.3981 43.5768 69.4383 43.7824C67.8436 44.1195 66.262 44.5746 64.6389 44.7819C64.5534 44.7961 64.4744 44.8279 64.4103 44.8739C64.3462 44.9199 64.2993 44.9784 64.2746 45.0432C64.4927 45.1022 64.724 45.1595 64.9487 45.2117C64.9727 45.2741 64.9988 45.3398 65.0294 45.4039C65.0599 45.4679 65.0796 45.5135 65.1101 45.5725C65.3283 45.5438 65.5333 45.5101 65.7428 45.473L65.9609 45.4326C67.1782 45.2033 68.3606 44.8763 69.5757 44.6319C70.7288 44.4201 71.8126 44.0258 72.7585 43.4739C73.6312 42.943 74.1831 42.1693 73.9148 41.3013C73.6464 40.4332 72.8633 39.673 72.1804 38.9837C71.526 38.3364 70.8235 37.7043 70.2585 37.0082C72.0492 36.8526 73.7809 36.4198 75.3502 35.7356C75.4215 35.7021 75.4821 35.6567 75.5276 35.6026C75.5731 35.5486 75.6023 35.4873 75.6129 35.4234C75.6236 35.3594 75.6156 35.2945 75.5893 35.2333C75.5631 35.1721 75.5194 35.1162 75.4615 35.0698Z" fill="#4353FF"/>
<path d="M46.9802 30.3542C46.9802 30.3542 46.9802 30.3717 46.9967 30.3717C46.8648 30.3366 46.7494 30.3191 46.6176 30.2839C46.7494 30.3191 46.8648 30.3366 46.9802 30.3542ZM44.0627 37.9582C44.0627 37.9757 44.0627 37.9757 44.0627 37.9582V37.9582Z" fill="#4353FF"/>
<path d="M26.6401 36.2547C27.2005 37.0801 28.3049 37.1504 29.2609 37.1679C34.4036 37.2206 39.5463 37.2909 44.6891 37.3435C44.8539 37.3435 45.0187 37.3435 45.1671 37.2733C45.3813 37.1679 45.5132 36.9396 45.6286 36.7289C46.2879 35.4469 46.7 34.0245 46.8648 32.5669C46.8978 32.1981 46.9308 31.8118 46.7659 31.4781C46.4692 30.8283 45.6616 30.6878 44.9857 30.6352C41.7056 30.3542 38.409 30.1434 35.1289 29.9854C32.5905 29.8625 29.2774 28.9317 27.4148 31.2498C26.2774 32.6371 25.4698 34.5513 26.6401 36.2547Z" fill="#D3D3D3"/>
<path d="M29.0961 30.0381C33.8102 29.6517 38.5738 29.8098 43.2385 30.5474C44.5572 30.7581 45.8594 31.0039 47.1615 31.3025C47.6725 31.4254 47.9033 30.5825 47.3758 30.4595C42.7111 29.4059 37.931 28.879 33.1509 28.9493C31.7993 28.9668 30.4312 29.0371 29.0796 29.1425C28.8653 29.16 28.6675 29.3356 28.6675 29.5815C28.684 29.8273 28.8653 30.0556 29.0961 30.0381Z" fill="#4353FF"/>
<path d="M23.1457 37.0801C24.0522 37.1679 24.9588 37.3435 25.8489 37.5191C26.7555 37.6948 27.6785 37.8528 28.6016 37.9582C30.4477 38.1865 32.2938 38.2567 34.1564 38.3445C37.8321 38.5201 41.5078 38.7133 45.1835 38.9065C47.2769 39.0119 49.3703 39.1172 51.4636 39.2226C51.9911 39.2402 51.9911 38.3621 51.4636 38.3445C47.7714 38.1689 44.0957 37.9757 40.4034 37.7826C38.5573 37.6948 36.6948 37.5894 34.8486 37.5016C32.9861 37.4138 31.14 37.3435 29.2774 37.1504C28.2554 37.045 27.2335 36.887 26.228 36.6938C25.206 36.5006 24.1841 36.2899 23.1457 36.1845C22.9314 36.1669 22.7336 36.3952 22.7336 36.6235C22.7336 36.8869 22.9149 37.0626 23.1457 37.0801Z" fill="#4353FF"/>
<path d="M53.7547 39.328C55.1228 39.3631 56.4909 39.2928 57.8426 39.0821C58.1722 39.0294 58.5019 38.9767 58.8315 38.9065C59.1282 38.8538 59.5403 38.8362 59.7546 38.6079C60.0018 38.3445 59.9194 37.8879 59.9194 37.5543C59.9194 37.1855 59.9194 36.7991 59.9029 36.4304C59.9029 35.8684 59.0788 35.8684 59.0788 36.4304C59.0788 36.7289 59.0788 37.0274 59.0788 37.3435C59.0788 37.484 59.0788 37.6245 59.0788 37.7826C59.0788 37.8528 59.0788 37.9231 59.0788 37.9933C59.0788 38.0284 59.0788 38.046 59.0788 38.0811C59.0788 38.1689 59.0788 38.1689 59.0788 38.0811C59.1282 38.0284 59.1777 37.9757 59.2271 37.9231C59.0953 38.0284 58.7821 38.0284 58.6173 38.0635C58.403 38.0987 58.1722 38.1514 57.9414 38.1865C57.4799 38.2567 57.0184 38.327 56.5404 38.3621C55.6009 38.4499 54.6613 38.485 53.7053 38.4499C53.2273 38.4323 53.2273 39.3104 53.7547 39.328Z" fill="#4353FF"/>
<path d="M46.8648 28.8615C48.3813 33.0937 50.4581 37.0801 53.0295 40.6802C54.1339 38.1865 54.7108 35.4294 54.7437 32.6547C57.1503 34.9728 59.7711 37.3962 62.9853 37.7474C62.7051 35.3591 61.9304 33.041 60.7271 31.0039L60.859 30.723C64.1226 30.6352 67.139 28.9142 69.9906 27.2458C67.0236 24.6117 63.8094 22.2936 60.3974 20.3619L62.9358 21.837C64.7655 20.0106 66.6445 18.2369 68.5401 16.4984C64.3534 14.6193 59.7381 13.7764 55.2053 14.0574L55.1888 13.9344C55.8976 10.7032 56.6063 7.45436 57.3151 4.2231C53.1614 5.17141 49.2219 7.20851 45.9418 10.0885L45.9747 9.93049C44.8044 6.73435 43.5352 3.57334 42.1836 0.465003C39.9254 3.41529 38.0299 6.66411 36.5299 10.1061H36.2003C32.5905 9.28073 29.0961 7.80559 25.9313 5.76849C26.3104 8.85926 26.8873 11.9149 27.6291 14.9179C24.0028 15.1462 20.4095 15.9013 16.981 17.1657C18.6128 19.3433 20.3435 21.4506 22.1567 23.4526C20.0633 25.6478 17.97 27.8078 15.8601 29.9854C17.7887 30.2137 19.7007 30.4244 21.6292 30.6527C21.4149 32.8479 21.2171 35.0606 21.0029 37.2557C23.9863 35.2538 26.6566 32.6898 28.8488 29.7044C34.9805 29.5464 41.1946 29.3356 47.2439 30.3893C47.3593 30.4069 47.5077 30.4595 47.5077 30.5825" fill="white"/>
<path d="M28.5521 29.4059C26.3763 32.3562 23.7555 34.885 20.7886 36.8869C21.0029 37.0099 21.2007 37.1328 21.4149 37.2733C21.6292 35.0781 21.827 32.8654 22.0413 30.6703C22.0578 30.4244 21.827 30.2488 21.6292 30.2313C19.7007 30.003 17.7887 29.7922 15.8601 29.5639C15.959 29.8098 16.0579 30.0556 16.1568 30.3191C18.2502 28.1239 20.36 25.9463 22.4534 23.7863C22.6182 23.6107 22.6017 23.3297 22.4534 23.1716C20.6402 21.1521 18.9095 19.0623 17.2777 16.8847C17.2117 17.1306 17.1623 17.3764 17.0964 17.6223C20.4919 16.3755 24.0522 15.6203 27.6455 15.392C27.9093 15.3745 28.1071 15.1286 28.0411 14.8301C27.3159 11.8447 26.739 8.82414 26.3599 5.76849C26.1456 5.89142 25.9478 6.01435 25.7335 6.15483C27.4807 7.27875 29.3268 8.22706 31.2553 9.01731C32.1949 9.40366 33.1509 9.73732 34.1234 10.0183C34.8981 10.2466 35.7223 10.5627 36.5464 10.5627C36.6783 10.5627 36.8431 10.4749 36.909 10.352C38.3925 6.94509 40.2716 3.71383 42.4968 0.798666C42.2825 0.763543 42.0682 0.745982 41.854 0.71086C43.2056 3.78407 44.4418 6.90997 45.6121 10.071C45.6121 10.0007 45.6121 9.91293 45.6121 9.84269C45.5956 9.89537 45.5956 9.94806 45.5791 10.0007C45.4638 10.4573 45.9583 10.7032 46.2714 10.4222C48.7769 8.2095 51.6944 6.50606 54.7932 5.43482C55.6668 5.13628 56.5734 4.87287 57.4634 4.66213C57.2986 4.48652 57.1173 4.29335 56.9525 4.11773C56.5734 5.85629 56.1942 7.57729 55.8151 9.31585C55.6338 10.1764 55.436 11.0193 55.2547 11.8798C55.1558 12.3013 55.0734 12.7403 54.9745 13.1618C54.8921 13.4954 54.7932 13.8291 54.8426 14.1803C54.8756 14.3559 55.0734 14.514 55.2382 14.4964C58.7491 14.2857 62.293 14.7423 65.6555 15.8311C66.6116 16.1472 67.5511 16.4984 68.4577 16.9199C68.3917 16.674 68.3423 16.4281 68.2764 16.1823C66.3643 17.9208 64.5017 19.6945 62.6721 21.5209C62.8369 21.5033 63.0018 21.4682 63.1666 21.4506C62.326 20.9589 61.4853 20.4672 60.6282 19.9755C60.4963 20.2214 60.348 20.4848 60.2161 20.7306C63.5952 22.6448 66.7929 24.9278 69.7269 27.5444C69.7598 27.3161 69.7763 27.0878 69.8093 26.8595C67.0401 28.4751 64.1226 30.1786 60.8754 30.2839C60.7271 30.2839 60.5952 30.3717 60.5128 30.4947C60.4634 30.5825 60.4139 30.6703 60.381 30.7757C60.315 30.9161 60.2985 31.0918 60.381 31.2147C61.5348 33.1991 62.3095 35.4294 62.5732 37.7299C62.7051 37.5894 62.8534 37.4313 62.9853 37.2909C59.8205 36.9221 57.2821 34.4986 55.0239 32.3386C54.7602 32.0927 54.3317 32.2508 54.3152 32.6547C54.2987 35.3416 53.7383 38.0109 52.6669 40.4519C52.8976 40.4519 53.1449 40.4519 53.3756 40.4519C51.3977 37.6772 49.6999 34.6742 48.3318 31.4957C47.9362 30.5825 47.5736 29.6693 47.2439 28.7385C47.1615 28.5103 46.9637 28.3698 46.733 28.44C46.5352 28.4927 46.3703 28.7561 46.4527 28.9844C47.6395 32.2859 49.156 35.4645 51.0021 38.4148C51.5295 39.2577 52.09 40.1007 52.6669 40.9085C52.8317 41.1368 53.2273 41.2421 53.3756 40.9085C54.513 38.327 55.1064 35.5172 55.1393 32.6723C54.9086 32.7776 54.6778 32.883 54.4306 32.9884C56.8865 35.3416 59.5568 37.8177 62.9688 38.204C63.1666 38.2216 63.4138 37.9757 63.3809 37.765C63.0842 35.2889 62.3095 32.9181 61.0732 30.7932C61.0732 30.9337 61.0732 31.0917 61.0732 31.2322C61.1227 31.1444 61.1721 31.0566 61.2051 30.9513C61.0897 31.0215 60.9743 31.0918 60.8425 31.162C64.238 31.0566 67.2874 29.3181 70.1884 27.6146C70.4027 27.4917 70.4686 27.1054 70.2708 26.9297C67.2709 24.2604 64.0402 21.9248 60.5952 19.9755C60.1337 19.7121 59.7051 20.4672 60.1832 20.7306C61.0238 21.2224 61.8644 21.7141 62.7216 22.2058C62.8864 22.2936 63.0842 22.276 63.216 22.1355C65.0457 20.3092 66.9247 18.5355 68.8203 16.7969C69.084 16.5511 68.9027 16.1823 68.639 16.0594C65.3424 14.5842 61.7985 13.7413 58.2382 13.5832C57.2327 13.5305 56.2107 13.5481 55.2053 13.6008C55.3371 13.7062 55.469 13.8115 55.6009 13.9169C55.6009 13.8818 55.5844 13.8466 55.5844 13.794C55.5844 13.8642 55.5844 13.952 55.5844 14.0223C56.2931 10.791 57.0019 7.54217 57.7107 4.31091C57.7766 3.97724 57.5129 3.69626 57.1997 3.76651C53.9196 4.52164 50.7548 5.9441 47.9527 7.92852C47.145 8.49048 46.3868 9.10512 45.6451 9.75488C45.8758 9.89537 46.1066 10.0359 46.3374 10.1764C46.3703 10.071 46.3868 9.96562 46.3868 9.84269C46.3538 9.61439 46.222 9.36854 46.156 9.1578C46.0077 8.73633 45.8429 8.33242 45.6945 7.91096C45.3649 7.05046 45.0352 6.18996 44.6891 5.32946C44.0132 3.60846 43.288 1.90502 42.5627 0.219146C42.4638 -0.0267109 42.0682 -0.0793946 41.9199 0.13134C39.6452 3.11675 37.7167 6.38313 36.2003 9.86025C36.3156 9.79 36.431 9.71976 36.5629 9.64951C36.2497 9.64951 36.0025 9.57927 35.6893 9.50903C35.2113 9.3861 34.7498 9.26317 34.2717 9.12268C33.3322 8.8417 32.4092 8.50804 31.5026 8.13925C29.6235 7.41924 27.8598 6.4885 26.1621 5.3997C25.9148 5.24165 25.5027 5.43482 25.5357 5.78605C25.9313 8.91194 26.4917 12.0027 27.2499 15.0584C27.3818 14.8652 27.5137 14.6896 27.6455 14.4964C23.9863 14.7247 20.3435 15.4798 16.8821 16.7618C16.5689 16.8847 16.503 17.236 16.7008 17.4994C18.3326 19.677 20.0633 21.7843 21.8765 23.7863C21.8765 23.5756 21.8765 23.3648 21.8765 23.1716C19.7831 25.3492 17.6733 27.5093 15.5799 29.6869C15.2997 29.9678 15.5305 30.3893 15.8766 30.442C17.8051 30.6703 19.7172 30.881 21.6457 31.1093C21.5138 30.9688 21.3655 30.8108 21.2336 30.6703C21.0193 32.8654 20.8215 35.0781 20.6073 37.2733C20.5743 37.607 20.9864 37.8177 21.2336 37.6596C24.2665 35.6225 26.9532 33.041 29.162 30.0381C29.2938 29.8449 29.3268 29.599 29.162 29.4234C28.9972 29.2478 28.684 29.2127 28.5521 29.4059Z" fill="#4353FF"/>
<path d="M58.848 39.0119C59.5238 39.2928 60.0348 39.8724 60.6117 40.3465C61.5183 41.1192 62.4743 41.8217 63.3644 42.6295C65.0621 44.1573 66.6775 45.7905 68.4082 47.2481C69.3313 48.0208 70.2708 48.7583 71.2763 49.4081C71.4906 49.5486 71.8367 49.4257 71.8861 49.1447C72.2982 46.5281 73.007 43.9466 73.996 41.5231C74.0784 41.3124 74.0619 41.0314 73.8476 40.926C71.2598 39.5914 68.5895 38.4675 65.8204 37.607C65.1446 37.3962 64.3204 37.0099 63.6281 36.9748C62.9193 36.9396 62.4743 37.4489 61.7326 37.2206C60.1172 36.6938 58.4195 36.1318 57.2327 34.8323C56.969 34.5513 56.7382 34.2176 56.458 33.9542C55.9965 33.4976 55.436 33.1815 54.8756 32.8654C54.48 34.9025 54.1503 36.9572 53.8536 39.0294C54.958 39.0997 56.0624 39.0645 57.1668 38.924C57.5459 38.8714 57.925 38.8187 58.3041 38.8714C58.5019 38.8889 58.6667 38.9416 58.848 39.0119Z" fill="#4353FF"/>
<path d="M26.3434 32.4966C26.3269 33.7435 26.3269 34.9728 26.3599 36.2196C26.3763 36.7816 27.2005 36.7816 27.184 36.2196C27.151 34.9903 27.151 33.7435 27.1675 32.4966C27.184 31.9347 26.3599 31.9347 26.3434 32.4966Z" fill="#4353FF"/>
<path d="M28.8323 30.2839C31.8487 30.3717 34.8651 30.4595 37.8815 30.5474C39.3321 30.5825 40.7661 30.6176 42.2001 30.7932C42.9089 30.881 43.6012 30.9864 44.2935 31.162C44.4583 31.1971 44.6231 31.2498 44.788 31.2849C44.8209 31.3025 44.8704 31.3025 44.9198 31.32C44.8869 31.3025 44.9198 31.2498 44.9198 31.3376C44.9033 31.7064 44.8868 32.0927 44.8539 32.4615C44.7055 34.1825 44.4088 35.886 43.9638 37.5543C43.8154 38.0987 44.6066 38.327 44.755 37.7826C45.1671 36.2021 45.4638 34.5864 45.6286 32.9708C45.6616 32.5845 45.6945 32.1981 45.7275 31.7942C45.744 31.4254 45.8099 31.0039 45.5462 30.7054C45.2989 30.4244 44.9033 30.3717 44.5737 30.3015C44.211 30.2137 43.8319 30.1434 43.4528 30.0732C41.9529 29.8273 40.4364 29.7395 38.9365 29.6869C37.3541 29.6342 35.7717 29.599 34.1893 29.5464C32.4092 29.4937 30.629 29.441 28.8323 29.3883C28.3049 29.3883 28.3049 30.2664 28.8323 30.2839Z" fill="#4353FF"/>
<path d="M26.7555 36.9221C31.1894 37.2031 35.6234 37.5016 40.0573 37.7826C41.31 37.8704 42.5792 37.9406 43.8319 38.0284C44.3594 38.0635 44.3594 37.1855 43.8319 37.1504C39.398 36.8694 34.964 36.5708 30.5301 36.2899C29.2774 36.2021 28.0082 36.1318 26.7555 36.044C26.2115 36.0089 26.228 36.8869 26.7555 36.9221Z" fill="#4353FF"/>
<path d="M28.4202 37.484C29.8048 37.3611 31.2059 37.484 32.5905 37.6772C33.975 37.8528 35.3596 38.0635 36.7442 38.2567C37.5519 38.3621 38.3431 38.485 39.1507 38.5904C39.365 38.6255 39.5628 38.3621 39.5628 38.1514C39.5628 37.8879 39.365 37.7474 39.1507 37.7123C37.7497 37.5192 36.3486 37.3084 34.9475 37.1152C33.5795 36.9221 32.1949 36.6938 30.8103 36.606C30.0191 36.5533 29.2114 36.5357 28.4202 36.606C28.206 36.6235 28.0082 36.7991 28.0082 37.045C28.0082 37.2733 28.206 37.5016 28.4202 37.484Z" fill="#4353FF"/>
<path d="M44.0957 38.3797C46.4857 38.7484 48.9252 39.1172 51.2823 38.6079C51.2658 37.6948 50.623 36.9572 50.0625 36.2372C48.8922 34.7094 48.0516 32.9181 47.6066 31.0215C47.5901 30.9161 47.5571 30.8108 47.4747 30.7405C47.3758 30.6527 47.2439 30.6527 47.1285 30.6527C46.5022 30.6527 45.3649 30.3893 45.1506 30.9688C44.9363 31.5483 45.233 32.8479 45.1835 33.4976C45.1506 33.9893 44.5572 38.4499 44.0957 38.3797Z" fill="#4353FF"/>
<path d="M23.4094 35.6577C23.2281 35.8333 23.0468 36.0967 23.1292 36.3426C23.1621 36.4479 23.2446 36.5182 23.327 36.5884C23.739 36.9045 24.283 36.9045 24.7775 36.9045C25.5357 36.9045 26.2774 36.8869 27.0357 36.8869C26.2939 36.8869 26.7719 33.0762 26.4917 32.883C25.9972 32.4966 23.8215 35.2362 23.4094 35.6577Z" fill="#4353FF"/>
<path d="M37.3211 31.8118C37.2222 31.9347 37.1068 32.0752 37.0079 32.1981C36.942 32.2859 36.8431 32.444 36.7442 32.4791C36.8101 32.4615 36.8761 32.444 36.9585 32.4264C36.9915 32.444 37.0244 32.4615 37.0574 32.4615C37.0244 32.4264 37.0079 32.3913 36.975 32.3737C36.942 32.3386 36.909 32.2859 36.8761 32.2508C36.7937 32.163 36.7112 32.0927 36.6123 32.0225C36.4145 31.882 36.1838 31.7766 35.9695 31.724C35.475 31.601 34.9805 31.6713 34.5355 31.882C33.6124 32.3035 33.019 33.2342 32.5575 34.1474C32.4421 34.3757 32.2608 34.6391 32.2773 34.9201C32.2938 35.324 32.6069 35.4469 32.9036 35.5347C33.4641 35.6928 34.0245 35.8684 34.5849 36.0089C35.1124 36.1318 35.6728 36.1845 36.1508 35.886C36.5464 35.6401 36.8431 35.166 36.7937 34.6567C36.6783 33.4625 34.8322 32.6196 34.3212 33.9367C34.2388 34.1474 34.4201 34.4284 34.6014 34.4811C34.8322 34.5513 35.0135 34.3933 35.1124 34.1825C35.1453 34.0947 35.3431 34.1474 35.3926 34.165C35.5574 34.2176 35.7387 34.3406 35.8541 34.4811C36.0684 34.7269 35.9695 34.9903 35.7058 35.1484C35.3267 35.3767 34.7992 35.1835 34.4036 35.0606C34.1564 34.9903 33.8926 34.9201 33.6454 34.8498C33.53 34.8147 33.4146 34.7796 33.2992 34.7445C33.2333 34.7269 33.1674 34.7094 33.1014 34.6918C33.0685 34.6742 32.9036 34.604 32.9696 34.6742C33.0025 34.7445 33.0355 34.7972 33.0685 34.8674C33.052 34.9728 33.052 34.9728 33.1014 34.8674C33.1179 34.8498 33.1179 34.8147 33.1344 34.7972C33.1674 34.7094 33.2168 34.6391 33.2498 34.5513C33.3157 34.4108 33.3981 34.2703 33.4641 34.1474C33.6124 33.884 33.7772 33.6206 33.9586 33.3923C34.2882 32.9884 34.7003 32.6547 35.2113 32.5493C35.6563 32.4615 36.0849 32.6196 36.3651 32.9884C36.5629 33.2518 36.8761 33.4098 37.1728 33.2167C37.3046 33.1288 37.4035 32.9884 37.5024 32.883C37.6343 32.7249 37.7497 32.5845 37.8815 32.4264C38.2442 32.0049 37.6673 31.3727 37.3211 31.8118Z" fill="#4353FF"/>
<path d="M42.4309 36.1318C42.9583 36.1318 42.9583 35.2538 42.4309 35.2538C41.9034 35.2538 41.9034 36.1318 42.4309 36.1318Z" fill="#4353FF"/>
<path d="M43.4858 34.2001C44.0132 34.2001 44.0132 33.322 43.4858 33.322C42.9418 33.322 42.9418 34.2001 43.4858 34.2001Z" fill="#4353FF"/>
<path d="M42.2166 32.7249C42.744 32.7249 42.744 31.8469 42.2166 31.8469C41.6891 31.8469 41.6891 32.7249 42.2166 32.7249Z" fill="#4353FF"/>
<path d="M29.2609 32.2684C29.7883 32.2684 29.7883 31.3903 29.2609 31.3903C28.7334 31.3903 28.7334 32.2684 29.2609 32.2684Z" fill="#4353FF"/>
<path d="M28.206 33.8313C28.7334 33.8313 28.7334 32.9532 28.206 32.9532C27.6785 32.9532 27.6785 33.8313 28.206 33.8313Z" fill="#4353FF"/>
<path d="M29.1125 35.605C29.64 35.605 29.64 34.7269 29.1125 34.7269C28.5851 34.7269 28.5851 35.605 29.1125 35.605Z" fill="#4353FF"/>
<path d="M48.5653 29.2787C48.5653 29.2787 48.566 29.2962 48.5825 29.2956C48.4493 29.2658 48.3333 29.253 48.2001 29.2232C48.3333 29.253 48.4493 29.2658 48.5653 29.2787ZM45.9592 36.995C45.9599 37.0125 45.9599 37.0125 45.9592 36.995V36.995Z" fill="#4353FF"/>
<path d="M28.4817 36.0009C29.0752 36.8028 30.1815 36.8281 31.1375 36.8068C36.2781 36.6505 41.4194 36.5117 46.56 36.3554C46.7247 36.3487 46.8894 36.342 47.0348 36.2658C47.2446 36.1518 47.3671 35.9183 47.4738 35.7031C48.0805 34.3954 48.4344 32.9573 48.5399 31.4943C48.5579 31.1245 48.5751 30.7371 48.3968 30.4104C48.074 29.7732 47.2613 29.6657 46.5839 29.6405C43.295 29.493 39.9926 29.4164 36.7087 29.3918C34.1674 29.3721 30.8193 28.5768 29.0524 30.9686C27.9724 32.401 27.2432 34.3464 28.4817 36.0009Z" fill="#D3D3D3"/>
<path d="M30.6831 29.6896C35.3776 29.112 40.1437 29.0763 44.8346 29.6238C46.1607 29.7807 47.4718 29.9735 48.785 30.2189C49.3005 30.3209 49.4968 29.4693 48.9648 29.3679C44.2612 28.5046 39.4636 28.1725 34.6903 28.4369C33.3405 28.5094 31.9764 28.6352 30.6302 28.7954C30.4168 28.8216 30.2263 29.0051 30.2363 29.2508C30.2628 29.4958 30.4532 29.7165 30.6831 29.6896Z" fill="#4353FF"/>
<path d="M25.0237 36.9676C25.9331 37.0185 26.8461 37.1571 27.7426 37.2964C28.6555 37.435 29.5842 37.5555 30.5108 37.6232C32.3647 37.7763 34.2121 37.7715 36.0767 37.7835C39.7565 37.8096 43.4371 37.8533 47.1176 37.8969C49.2135 37.9172 51.3094 37.9374 53.4053 37.9576C53.9331 37.9537 53.8974 37.0764 53.3697 37.0803C49.6734 37.0548 45.9928 37.0112 42.2958 36.9682C40.4477 36.9555 38.5823 36.9259 36.7342 36.9132C34.8696 36.9011 33.0221 36.9059 31.1532 36.7886C30.1278 36.7249 29.1003 36.6085 28.0878 36.4563C27.0589 36.3048 26.0292 36.1358 24.9873 36.0727C24.7725 36.0639 24.5842 36.3 24.5934 36.5281C24.6041 36.7913 24.7924 36.9594 25.0237 36.9676Z" fill="#4353FF"/>
<path d="M28.0326 32.258C28.0668 33.5044 28.1167 34.7327 28.2003 35.9772C28.2396 36.538 29.0631 36.5045 29.0238 35.9437C28.9409 34.7168 28.8902 33.471 28.856 32.2245C28.8497 31.6623 28.0262 31.6958 28.0326 32.258Z" fill="#4353FF"/>
<path d="M30.4295 29.9459C33.447 29.9111 36.4645 29.8763 39.482 29.8414C40.9327 29.8176 42.367 29.7944 43.807 29.9116C44.5187 29.9705 45.2147 30.0477 45.9136 30.195C46.0797 30.2234 46.2465 30.2694 46.4127 30.2978C46.4463 30.314 46.4957 30.3119 46.5458 30.3275C46.5122 30.3113 46.543 30.2573 46.5466 30.345C46.5451 30.7142 46.5443 31.1009 46.5263 31.4707C46.4481 33.1963 46.2208 34.9104 45.8439 36.5954C45.7178 37.1454 46.5176 37.3413 46.6438 36.7914C46.9913 35.1954 47.2221 33.5691 47.3211 31.9481C47.3383 31.5607 47.3556 31.1733 47.3721 30.7684C47.3736 30.3993 47.4224 29.9755 47.1467 29.6879C46.8882 29.4172 46.4908 29.3806 46.1586 29.3238C45.7927 29.2508 45.411 29.1961 45.0294 29.1413C43.5207 28.9566 42.0019 28.9305 40.5011 28.9388C38.9179 28.9504 37.3354 28.9796 35.7521 28.9913C33.9713 29.011 32.1905 29.0307 30.3931 29.0511C29.8661 29.0725 29.9018 29.9498 30.4295 29.9459Z" fill="#4353FF"/>
<path d="M28.6241 36.663C33.0658 36.7636 37.5082 36.8817 41.95 36.9823C43.2052 37.0191 44.4762 37.0377 45.7314 37.0745C46.2599 37.0882 46.2242 36.2109 45.6958 36.1972C41.2541 36.0966 36.8116 35.9785 32.3699 35.8779C31.1147 35.8411 29.8437 35.8225 28.5884 35.7856C28.0435 35.7727 28.0957 36.6493 28.6241 36.663Z" fill="#4353FF"/>
<path d="M30.3104 37.1568C31.6888 36.9777 33.0937 37.0436 34.485 37.1804C35.8756 37.2996 37.2676 37.4539 38.6589 37.5906C39.4701 37.6631 40.2657 37.7538 41.077 37.8262C41.2925 37.8526 41.4794 37.5814 41.4709 37.3708C41.4601 37.1076 41.2568 36.9753 41.0413 36.9489C39.6335 36.8128 38.2251 36.6592 36.8173 36.5231C35.4425 36.3857 34.0498 36.2138 32.6628 36.1824C31.8701 36.1619 31.0624 36.1772 30.2747 36.2795C30.0613 36.3057 29.8708 36.4893 29.8808 36.7349C29.8901 36.963 30.097 37.1831 30.3104 37.1568Z" fill="#4353FF"/>
<path d="M46.0092 37.4148C48.4123 37.6861 50.8648 37.9555 53.1992 37.3508C53.1456 36.4391 52.4733 35.7282 51.8841 35.0316C50.6527 33.5526 49.74 31.797 49.2182 29.92C49.1975 29.8154 49.1603 29.7115 49.0751 29.6446C48.9727 29.5609 48.8409 29.5663 48.7256 29.571C48.0998 29.5964 46.9527 29.3794 46.7621 29.9672C46.5716 30.5549 46.9208 31.8413 46.8978 32.4926C46.8849 32.9852 46.4732 37.4662 46.0092 37.4148Z" fill="#4353FF"/>
<path d="M25.2294 35.5356C25.0554 35.7184 24.8849 35.989 24.9773 36.2313C25.0145 36.3352 25.0997 36.4021 25.1849 36.4689C25.6095 36.768 26.153 36.7459 26.6471 36.7258C27.4047 36.695 28.1451 36.6473 28.9027 36.6165C28.1615 36.6466 28.4843 32.8196 28.1965 32.638C27.6867 32.272 25.624 35.0977 25.2294 35.5356Z" fill="#4353FF"/>
<path d="M38.9734 31.1276C38.8796 31.2544 38.77 31.3995 38.6762 31.5263C38.6139 31.6167 38.5215 31.7787 38.4241 31.8178C38.4892 31.7976 38.5544 31.7773 38.636 31.7564C38.6697 31.7726 38.7033 31.7888 38.7363 31.7875C38.7019 31.7538 38.684 31.7193 38.6504 31.7031C38.616 31.6694 38.5809 31.6181 38.5466 31.5843C38.4606 31.4999 38.3754 31.4331 38.2738 31.3669C38.0704 31.2346 37.8356 31.1387 37.6193 31.0948C37.1203 30.992 36.629 31.0823 36.1929 31.3109C35.2877 31.7696 34.7327 32.7237 34.3086 33.6548C34.2026 33.8876 34.0322 34.1582 34.06 34.4383C34.0929 34.8412 34.4108 34.9513 34.7109 35.027C35.2772 35.1621 35.8443 35.3148 36.41 35.4324C36.942 35.5338 37.5041 35.5637 37.9696 35.246C38.3549 34.9842 38.6321 34.4984 38.562 33.9916C38.3982 32.8031 36.5193 32.0358 36.0623 33.3726C35.9885 33.5865 36.1811 33.8599 36.3644 33.9052C36.5978 33.966 36.7726 33.8007 36.8628 33.5861C36.8922 33.497 37.092 33.5416 37.1421 33.5572C37.3089 33.6031 37.4951 33.7186 37.6161 33.8543C37.8402 34.0912 37.7521 34.3584 37.495 34.5271C37.1254 34.7706 36.5906 34.599 36.1903 34.4923C35.9404 34.4321 35.6741 34.3726 35.4242 34.3125C35.3074 34.2821 35.1907 34.2517 35.074 34.2213C35.0074 34.2064 34.9408 34.1916 34.8742 34.1767C34.8406 34.1605 34.673 34.097 34.7418 34.1645C34.7776 34.2333 34.8126 34.2846 34.8484 34.3535C34.8362 34.4594 34.8362 34.4594 34.8814 34.3522C34.8971 34.3339 34.8957 34.2988 34.9115 34.2806C34.9408 34.1916 34.9874 34.1194 35.0168 34.0303C35.0769 33.8872 35.1536 33.7435 35.2144 33.618C35.352 33.3488 35.506 33.0789 35.6778 32.8434C35.9908 32.4264 36.389 32.0763 36.8953 31.9503C37.3364 31.8444 37.771 31.9849 38.066 32.342C38.2743 32.5972 38.5937 32.7424 38.8823 32.5373C39.0104 32.4442 39.1036 32.2998 39.1981 32.1905C39.3234 32.0273 39.433 31.8822 39.5583 31.7189C39.9035 31.2831 39.3014 30.6748 38.9734 31.1276Z" fill="#4353FF"/>
<path d="M44.2545 35.2364C44.7815 35.215 44.7458 34.3377 44.2188 34.3591C43.6918 34.3805 43.7275 35.2579 44.2545 35.2364Z" fill="#4353FF"/>
<path d="M45.23 33.2634C45.7571 33.242 45.7214 32.3647 45.1943 32.3861C44.6509 32.4082 44.6865 33.2855 45.23 33.2634Z" fill="#4353FF"/>
<path d="M43.9019 31.8411C44.429 31.8196 44.3933 30.9423 43.8663 30.9637C43.3392 30.9852 43.3749 31.8625 43.9019 31.8411Z" fill="#4353FF"/>
<path d="M30.9384 31.9113C31.4654 31.8899 31.4297 31.0125 30.9027 31.034C30.3757 31.0554 30.4114 31.9327 30.9384 31.9113Z" fill="#4353FF"/>
<path d="M29.9478 33.5158C30.4749 33.4944 30.4392 32.6171 29.9122 32.6385C29.3851 32.6599 29.4208 33.5373 29.9478 33.5158Z" fill="#4353FF"/>
<path d="M30.9257 35.2512C31.4528 35.2298 31.4171 34.3524 30.8901 34.3739C30.363 34.3953 30.3987 35.2726 30.9257 35.2512Z" fill="#4353FF"/>
<defs>
<filter id="filter0_i_53_13" x="1.64034" y="44.402" width="7.22458" height="17.2587" filterUnits="userSpaceOnUse" color-interpolation-filters="sRGB">
<feFlood flood-opacity="0" result="BackgroundImageFix"/>
<feBlend mode="normal" in="SourceGraphic" in2="BackgroundImageFix" result="shape"/>
<feColorMatrix in="SourceAlpha" type="matrix" values="0 0 0 0 0 0 0 0 0 0 0 0 0 0 0 0 0 0 127 0" result="hardAlpha"/>
<feOffset dx="8.15338" dy="3.05752"/>
<feComposite in2="hardAlpha" operator="arithmetic" k2="-1" k3="1"/>
<feColorMatrix type="matrix" values="0 0 0 0 1 0 0 0 0 1 0 0 0 0 1 0 0 0 0.25 0"/>
<feBlend mode="normal" in2="shape" result="effect1_innerShadow_53_13"/>
</filter>
<filter id="filter1_i_53_13" x="29.3315" y="27.3721" width="17.6601" height="10.4355" filterUnits="userSpaceOnUse" color-interpolation-filters="sRGB">
<feFlood flood-opacity="0" result="BackgroundImageFix"/>
<feBlend mode="normal" in="SourceGraphic" in2="BackgroundImageFix" result="shape"/>
<feColorMatrix in="SourceAlpha" type="matrix" values="0 0 0 0 0 0 0 0 0 0 0 0 0 0 0 0 0 0 127 0" result="hardAlpha"/>
<feOffset dx="8.15338" dy="3.05752"/>
<feComposite in2="hardAlpha" operator="arithmetic" k2="-1" k3="1"/>
<feColorMatrix type="matrix" values="0 0 0 0 1 0 0 0 0 1 0 0 0 0 1 0 0 0 0.25 0"/>
<feBlend mode="normal" in2="shape" result="effect1_innerShadow_53_13"/>
</filter>
<filter id="filter2_i_53_13" x="31.7397" y="8.50708" width="12.8437" height="12.8437" filterUnits="userSpaceOnUse" color-interpolation-filters="sRGB">
<feFlood flood-opacity="0" result="BackgroundImageFix"/>
<feBlend mode="normal" in="SourceGraphic" in2="BackgroundImageFix" result="shape"/>
<feColorMatrix in="SourceAlpha" type="matrix" values="0 0 0 0 0 0 0 0 0 0 0 0 0 0 0 0 0 0 127 0" result="hardAlpha"/>
<feOffset dx="8.15338" dy="3.05752"/>
<feComposite in2="hardAlpha" operator="arithmetic" k2="-1" k3="1"/>
<feColorMatrix type="matrix" values="0 0 0 0 1 0 0 0 0 1 0 0 0 0 1 0 0 0 0.25 0"/>
<feBlend mode="normal" in2="shape" result="effect1_innerShadow_53_13"/>
</filter>
<filter id="filter3_i_53_13" x="5.25261" y="29.9518" width="65.4226" height="43.3475" filterUnits="userSpaceOnUse" color-interpolation-filters="sRGB">
<feFlood flood-opacity="0" result="BackgroundImageFix"/>
<feBlend mode="normal" in="SourceGraphic" in2="BackgroundImageFix" result="shape"/>
<feColorMatrix in="SourceAlpha" type="matrix" values="0 0 0 0 0 0 0 0 0 0 0 0 0 0 0 0 0 0 127 0" result="hardAlpha"/>
<feOffset dx="8.15338" dy="3.05752"/>
<feComposite in2="hardAlpha" operator="arithmetic" k2="-1" k3="1"/>
<feColorMatrix type="matrix" values="0 0 0 0 1 0 0 0 0 1 0 0 0 0 1 0 0 0 0.25 0"/>
<feBlend mode="normal" in2="shape" result="effect1_innerShadow_53_13"/>
</filter>
</defs>
</svg>
